<?xml version="1.0" encoding="UTF-8" standalone="no"?>
<!-- Created with Inkscape (http://www.inkscape.org/) -->

<svg
   xmlns:dc="http://purl.org/dc/elements/1.1/"
   xmlns:cc="http://creativecommons.org/ns#"
   xmlns:rdf="http://www.w3.org/1999/02/22-rdf-syntax-ns#"
   xmlns:svg="http://www.w3.org/2000/svg"
   xmlns="http://www.w3.org/2000/svg"
   xmlns:sodipodi="http://sodipodi.sourceforge.net/DTD/sodipodi-0.dtd"
   xmlns:inkscape="http://www.inkscape.org/namespaces/inkscape"
   width="210mm"
   height="297mm"
   viewBox="0 0 210 297"
   version="1.1"
   id="svg8"
   inkscape:version="0.92.3 (2405546, 2018-03-11)"
   sodipodi:docname="dessin.svg">
  <defs
     id="defs2" />
  <sodipodi:namedview
     id="base"
     pagecolor="#ffffff"
     bordercolor="#666666"
     borderopacity="1.0"
     inkscape:pageopacity="0.0"
     inkscape:pageshadow="2"
     inkscape:zoom="1.979899"
     inkscape:cx="531.11563"
     inkscape:cy="535.82844"
     inkscape:document-units="mm"
     inkscape:current-layer="layer1"
     showgrid="false"
     inkscape:window-width="1920"
     inkscape:window-height="1017"
     inkscape:window-x="1672"
     inkscape:window-y="-8"
     inkscape:window-maximized="1" />
  <metadata
     id="metadata5">
    <rdf:RDF>
      <cc:Work
         rdf:about="">
        <dc:format>image/svg+xml</dc:format>
        <dc:type
           rdf:resource="http://purl.org/dc/dcmitype/StillImage" />
        <dc:title></dc:title>
      </cc:Work>
    </rdf:RDF>
  </metadata>
  <g
     inkscape:label="Calque 1"
     inkscape:groupmode="layer"
     id="layer1">
    <rect
       style="opacity:1;fill:#e6e6e6;fill-opacity:1;stroke:#eeffff;stroke-width:0.76594186;stroke-linecap:round;stroke-linejoin:round;stroke-miterlimit:4;stroke-dasharray:none;stroke-dashoffset:0;stroke-opacity:1"
       id="rect834"
       width="84.469093"
       height="31.022575"
       x="98.28418"
       y="139.90459"
       rx="3.4130669"
       ry="2.856817"
       inkscape:export-xdpi="95.084679"
       inkscape:export-ydpi="95.084679" />
    <text
       xml:space="preserve"
       style="font-style:normal;font-variant:normal;font-weight:normal;font-stretch:normal;font-size:4.75096178px;line-height:2;font-family:'KIQ Demo';-inkscape-font-specification:'KIQ Demo';letter-spacing:0px;word-spacing:0px;fill:#000000;fill-opacity:1;stroke:none;stroke-width:0.32392916"
       x="103.46455"
       y="168.74277"
       id="text830"
       transform="scale(1.0000591,0.99994091)"
       inkscape:export-xdpi="83.439857"
       inkscape:export-ydpi="83.439857"><tspan
         sodipodi:role="line"
         id="tspan828"
         x="103.46455"
         y="168.74277"
         style="font-style:normal;font-variant:normal;font-weight:normal;font-stretch:normal;font-size:10.36573315px;font-family:potama;-inkscape-font-specification:potama;fill:#000080;stroke-width:0.32392916">STM32F<tspan
   style="font-size:10.36573315px;fill:#333333;stroke-width:0.32392916"
   id="tspan832">7XX</tspan></tspan></text>
    <g
       aria-label="grbl"
       style="font-style:normal;font-variant:normal;font-weight:normal;font-stretch:normal;font-size:22.57777786px;line-height:2;font-family:'KIQ Demo';-inkscape-font-specification:'KIQ Demo';letter-spacing:0px;word-spacing:0px;fill:#000000;fill-opacity:1;stroke:none;stroke-width:0.26458332"
       id="text817"
       transform="matrix(1.3604789,0,0,1.3604789,17.614599,-60.839415)"
       inkscape:export-xdpi="83.439857"
       inkscape:export-ydpi="83.439857">
      <path
         d="m 67.644232,158.66071 c -3.913481,-0.24083 -5.900326,-1.35467 -5.900326,-3.40172 0,-2.4083 2.833931,-4.53377 8.282702,-4.50366 3.492029,-0.0301 5.788688,1.04214 7.173459,2.06567 0.662281,0.42145 1.010565,1.47467 0.950358,2.43799 v 3.2512 c 0,2.28788 -1.986845,3.43182 -5.990637,3.46192 h -2.172817 l 0.04725,-1.66218 1.282666,-0.0236 c 1.986508,-0.0366 2.980267,-0.54187 2.980267,-1.68581 -0.0301,0 -0.0301,-1.08374 0.0301,-3.2512 0.06021,-1.38477 -1.414875,-2.04705 -4.365037,-2.01695 -2.950163,0 -4.425245,0.63218 -4.425245,1.92664 0.06021,1.17404 0.910901,0.82754 2.832045,0.97292 l 4.971294,0.0236 0.02362,2.40518 z"
         style="font-size:22.57777786px;stroke-width:0.26458332"
         id="path819"
         inkscape:connector-curvature="0"
         sodipodi:nodetypes="cscccscccsccccsccc" />
      <path
         d="m 79.296717,155.43961 c 0.120415,-2.4083 2.077156,-3.58234 5.870222,-3.58234 4.515556,0 7.164682,0 7.977482,0 v 1.6557 c -2.769541,0 -4.997215,0 -6.622815,0 -2.227674,0 -3.341511,0.63218 -3.371615,1.89654 l -0.0301,3.2512 h -3.82317 z"
         style="font-size:22.57777786px;stroke-width:0.26458332"
         id="path821"
         inkscape:connector-curvature="0" />
      <path
         d="m 104.84006,151.85727 c 3.94359,0.21072 5.90033,1.35467 5.90033,3.40172 0,2.40829 -2.70933,3.58234 -8.18821,3.58234 -3.461924,0 -5.900324,-0.48166 -7.315199,-1.47508 -0.632177,-0.45156 -0.933214,-1.14394 -0.903111,-2.10726 v -6.05085 h 3.823171 v 5.96054 c 0,1.32456 1.444978,2.01694 4.365039,2.01694 2.98026,0 4.45535,-0.66228 4.42524,-1.92663 -0.0301,-1.20415 -1.02352,-1.77612 -2.95016,-1.77612 h -4.876801 v -1.6256 z"
         style="font-size:22.57777786px;stroke-width:0.26458332"
         id="path823"
         inkscape:connector-curvature="0" />
      <path
         d="m 115.82603,149.20814 v 6.23147 c 0,1.14394 0.48166,1.68581 1.44498,1.5955 v 1.6256 h -1.44498 c -2.55881,0.0301 -3.85327,-0.90312 -3.85327,-2.76955 v -6.68302 z"
         style="font-size:22.57777786px;stroke-width:0.26458332"
         id="path825"
         inkscape:connector-curvature="0" />
    </g>
  </g>
</svg>
